<?xml version="1.0" encoding="UTF-8" standalone="no"?>
<!DOCTYPE svg PUBLIC "-//W3C//DTD SVG 1.1//EN" "http://www.w3.org/Graphics/SVG/1.1/DTD/svg11.dtd">
<svg width="100%" height="100%" viewBox="0 0 1000 1000" version="1.1" xmlns="http://www.w3.org/2000/svg" xmlns:xlink="http://www.w3.org/1999/xlink" xml:space="preserve" xmlns:serif="http://www.serif.com/" style="fill-rule:evenodd;clip-rule:evenodd;">
    <g transform="matrix(-1,1.22465e-16,-1.22465e-16,-1,1000,1000)">
        <path d="M-350,0L650,1000L0,1000L0,0L-350,0Z" style="fill-rule:nonzero;"/>
    </g>
    <g transform="matrix(-1,1.22465e-16,-1.22465e-16,-1,1000,1000)">
        <path d="M0,0L1000,1000L0,1000L0,0Z" style="fill-rule:nonzero;"/>
    </g>
    <g transform="matrix(-1,1.22465e-16,-1.22465e-16,-1,1000,1000)">
        <path d="M350,0L1350,1000L0,1000L0,0L350,0Z" style="fill-rule:nonzero;"/>
    </g>
    <g transform="matrix(-1,1.22465e-16,-1.22465e-16,-1,1000,1000)">
        <path d="M-350,0L650,1000" style="fill:none;fill-rule:nonzero;stroke:white;stroke-opacity:0.45;stroke-width:0.5px;"/>
    </g>
    <g transform="matrix(-1,1.22465e-16,-1.22465e-16,-1,1000,1000)">
        <path d="M0,0L1000,1000" style="fill:none;fill-rule:nonzero;stroke:white;stroke-opacity:0.45;stroke-width:0.5px;"/>
    </g>
    <g transform="matrix(-1,1.22465e-16,-1.22465e-16,-1,1000,1000)">
        <path d="M350,0L1350,1000" style="fill:none;fill-rule:nonzero;stroke:white;stroke-opacity:0.45;stroke-width:0.5px;"/>
    </g>
</svg>
